<mxfile host="app.diagrams.net" modified="2024-03-22T18:13:02.606Z" agent="Mozilla/5.0 (Windows NT 10.0; Win64; x64) AppleWebKit/537.36 (KHTML, like Gecko) Chrome/122.0.0.0 Safari/537.36 Edg/122.0.0.0" etag="LQDdJn7aMu0L0r7QukLy" version="24.0.6" type="github">
  <diagram name="PÃ¡gina-1" id="ibetIFrtiDHq1V6lLNbM">
    <mxGraphModel dx="494" dy="214" grid="1" gridSize="10" guides="1" tooltips="1" connect="1" arrows="1" fold="1" page="1" pageScale="1" pageWidth="850" pageHeight="1100" math="0" shadow="0">
      <root>
        <mxCell id="0" />
        <mxCell id="1" parent="0" />
        <mxCell id="dmkywI272U3WjR3wXTrY-139" value="" style="line;strokeWidth=2;direction=south;html=1;fillColor=#6EFF77;strokeColor=#6BFF93;" vertex="1" parent="1">
          <mxGeometry x="277.5" y="154" width="8.5" height="26" as="geometry" />
        </mxCell>
        <mxCell id="dmkywI272U3WjR3wXTrY-1" value="" style="endArrow=none;html=1;rounded=0;" edge="1" parent="1">
          <mxGeometry width="50" height="50" relative="1" as="geometry">
            <mxPoint x="280" y="290" as="sourcePoint" />
            <mxPoint x="280" y="70" as="targetPoint" />
          </mxGeometry>
        </mxCell>
        <mxCell id="dmkywI272U3WjR3wXTrY-2" value="" style="endArrow=none;html=1;rounded=0;" edge="1" parent="1">
          <mxGeometry width="50" height="50" relative="1" as="geometry">
            <mxPoint x="170" y="180" as="sourcePoint" />
            <mxPoint x="390" y="180" as="targetPoint" />
          </mxGeometry>
        </mxCell>
        <mxCell id="dmkywI272U3WjR3wXTrY-38" value="&lt;span style=&quot;&quot;&gt;&lt;font style=&quot;font-size: 4px;&quot;&gt;-90&lt;/font&gt;&lt;/span&gt;" style="text;html=1;align=center;verticalAlign=middle;whiteSpace=wrap;rounded=0;" vertex="1" parent="1">
          <mxGeometry x="185" y="177" width="9" height="10" as="geometry" />
        </mxCell>
        <mxCell id="dmkywI272U3WjR3wXTrY-63" value="&lt;span style=&quot;&quot;&gt;&lt;font style=&quot;font-size: 4px;&quot;&gt;-100&lt;/font&gt;&lt;/span&gt;" style="text;html=1;align=center;verticalAlign=middle;whiteSpace=wrap;rounded=0;" vertex="1" parent="1">
          <mxGeometry x="175" y="177" width="8" height="10" as="geometry" />
        </mxCell>
        <mxCell id="dmkywI272U3WjR3wXTrY-77" value="&lt;span style=&quot;&quot;&gt;&lt;font style=&quot;font-size: 4px;&quot;&gt;-70&lt;/font&gt;&lt;/span&gt;" style="text;html=1;align=center;verticalAlign=middle;whiteSpace=wrap;rounded=0;" vertex="1" parent="1">
          <mxGeometry x="205" y="177" width="8" height="10" as="geometry" />
        </mxCell>
        <mxCell id="dmkywI272U3WjR3wXTrY-78" value="&lt;span style=&quot;&quot;&gt;&lt;font style=&quot;font-size: 4px;&quot;&gt;-60&lt;/font&gt;&lt;/span&gt;" style="text;html=1;align=center;verticalAlign=middle;whiteSpace=wrap;rounded=0;" vertex="1" parent="1">
          <mxGeometry x="216" y="177" width="8" height="10" as="geometry" />
        </mxCell>
        <mxCell id="dmkywI272U3WjR3wXTrY-80" value="&lt;span style=&quot;&quot;&gt;&lt;font style=&quot;font-size: 4px;&quot;&gt;-50&lt;/font&gt;&lt;/span&gt;" style="text;html=1;align=center;verticalAlign=middle;whiteSpace=wrap;rounded=0;" vertex="1" parent="1">
          <mxGeometry x="226" y="177" width="8" height="10" as="geometry" />
        </mxCell>
        <mxCell id="dmkywI272U3WjR3wXTrY-82" value="&lt;span style=&quot;&quot;&gt;&lt;font style=&quot;font-size: 4px;&quot;&gt;-80&lt;/font&gt;&lt;/span&gt;" style="text;html=1;align=center;verticalAlign=middle;whiteSpace=wrap;rounded=0;" vertex="1" parent="1">
          <mxGeometry x="195" y="177" width="8" height="10" as="geometry" />
        </mxCell>
        <mxCell id="dmkywI272U3WjR3wXTrY-83" value="&lt;span style=&quot;&quot;&gt;&lt;font style=&quot;font-size: 4px;&quot;&gt;-30&lt;/font&gt;&lt;/span&gt;" style="text;html=1;align=center;verticalAlign=middle;whiteSpace=wrap;rounded=0;" vertex="1" parent="1">
          <mxGeometry x="246" y="177" width="8" height="10" as="geometry" />
        </mxCell>
        <mxCell id="dmkywI272U3WjR3wXTrY-84" value="&lt;span style=&quot;&quot;&gt;&lt;font style=&quot;font-size: 4px;&quot;&gt;-20&lt;/font&gt;&lt;/span&gt;" style="text;html=1;align=center;verticalAlign=middle;whiteSpace=wrap;rounded=0;" vertex="1" parent="1">
          <mxGeometry x="255" y="177" width="8" height="10" as="geometry" />
        </mxCell>
        <mxCell id="dmkywI272U3WjR3wXTrY-85" value="&lt;span style=&quot;&quot;&gt;&lt;font style=&quot;font-size: 4px;&quot;&gt;-10&lt;/font&gt;&lt;/span&gt;" style="text;html=1;align=center;verticalAlign=middle;whiteSpace=wrap;rounded=0;" vertex="1" parent="1">
          <mxGeometry x="265" y="177" width="8" height="10" as="geometry" />
        </mxCell>
        <mxCell id="dmkywI272U3WjR3wXTrY-86" value="&lt;span style=&quot;&quot;&gt;&lt;font style=&quot;font-size: 4px;&quot;&gt;-40&lt;/font&gt;&lt;/span&gt;" style="text;html=1;align=center;verticalAlign=middle;whiteSpace=wrap;rounded=0;" vertex="1" parent="1">
          <mxGeometry x="236" y="177" width="8" height="10" as="geometry" />
        </mxCell>
        <mxCell id="dmkywI272U3WjR3wXTrY-87" value="&lt;span style=&quot;&quot;&gt;&lt;font style=&quot;font-size: 4px;&quot;&gt;20&lt;/font&gt;&lt;/span&gt;" style="text;html=1;align=center;verticalAlign=middle;whiteSpace=wrap;rounded=0;" vertex="1" parent="1">
          <mxGeometry x="295" y="177" width="9" height="10" as="geometry" />
        </mxCell>
        <mxCell id="dmkywI272U3WjR3wXTrY-88" value="&lt;span style=&quot;&quot;&gt;&lt;font style=&quot;font-size: 4px;&quot;&gt;10&lt;/font&gt;&lt;/span&gt;" style="text;html=1;align=center;verticalAlign=middle;whiteSpace=wrap;rounded=0;" vertex="1" parent="1">
          <mxGeometry x="286" y="177" width="8" height="10" as="geometry" />
        </mxCell>
        <mxCell id="dmkywI272U3WjR3wXTrY-89" value="&lt;span style=&quot;&quot;&gt;&lt;font style=&quot;font-size: 4px;&quot;&gt;40&lt;/font&gt;&lt;/span&gt;" style="text;html=1;align=center;verticalAlign=middle;whiteSpace=wrap;rounded=0;" vertex="1" parent="1">
          <mxGeometry x="316" y="177" width="8" height="10" as="geometry" />
        </mxCell>
        <mxCell id="dmkywI272U3WjR3wXTrY-90" value="&lt;span style=&quot;&quot;&gt;&lt;font style=&quot;font-size: 4px;&quot;&gt;50&lt;/font&gt;&lt;/span&gt;" style="text;html=1;align=center;verticalAlign=middle;whiteSpace=wrap;rounded=0;" vertex="1" parent="1">
          <mxGeometry x="326" y="177" width="8" height="10" as="geometry" />
        </mxCell>
        <mxCell id="dmkywI272U3WjR3wXTrY-91" value="&lt;span style=&quot;&quot;&gt;&lt;font style=&quot;font-size: 4px;&quot;&gt;60&lt;/font&gt;&lt;/span&gt;" style="text;html=1;align=center;verticalAlign=middle;whiteSpace=wrap;rounded=0;" vertex="1" parent="1">
          <mxGeometry x="336" y="177" width="8" height="10" as="geometry" />
        </mxCell>
        <mxCell id="dmkywI272U3WjR3wXTrY-92" value="&lt;span style=&quot;&quot;&gt;&lt;font style=&quot;font-size: 4px;&quot;&gt;30&lt;/font&gt;&lt;/span&gt;" style="text;html=1;align=center;verticalAlign=middle;whiteSpace=wrap;rounded=0;" vertex="1" parent="1">
          <mxGeometry x="306" y="177" width="8" height="10" as="geometry" />
        </mxCell>
        <mxCell id="dmkywI272U3WjR3wXTrY-93" value="&lt;span style=&quot;&quot;&gt;&lt;font style=&quot;font-size: 4px;&quot;&gt;80&lt;/font&gt;&lt;/span&gt;" style="text;html=1;align=center;verticalAlign=middle;whiteSpace=wrap;rounded=0;" vertex="1" parent="1">
          <mxGeometry x="356" y="177" width="8" height="10" as="geometry" />
        </mxCell>
        <mxCell id="dmkywI272U3WjR3wXTrY-94" value="&lt;span style=&quot;&quot;&gt;&lt;font style=&quot;font-size: 4px;&quot;&gt;90&lt;/font&gt;&lt;/span&gt;" style="text;html=1;align=center;verticalAlign=middle;whiteSpace=wrap;rounded=0;" vertex="1" parent="1">
          <mxGeometry x="366" y="177" width="8" height="10" as="geometry" />
        </mxCell>
        <mxCell id="dmkywI272U3WjR3wXTrY-95" value="&lt;span style=&quot;&quot;&gt;&lt;font style=&quot;font-size: 4px;&quot;&gt;100&lt;/font&gt;&lt;/span&gt;" style="text;html=1;align=center;verticalAlign=middle;whiteSpace=wrap;rounded=0;" vertex="1" parent="1">
          <mxGeometry x="376" y="177" width="8" height="10" as="geometry" />
        </mxCell>
        <mxCell id="dmkywI272U3WjR3wXTrY-96" value="&lt;span style=&quot;&quot;&gt;&lt;font style=&quot;font-size: 4px;&quot;&gt;70&lt;/font&gt;&lt;/span&gt;" style="text;html=1;align=center;verticalAlign=middle;whiteSpace=wrap;rounded=0;" vertex="1" parent="1">
          <mxGeometry x="346" y="177" width="8" height="10" as="geometry" />
        </mxCell>
        <mxCell id="dmkywI272U3WjR3wXTrY-97" value="&lt;span style=&quot;&quot;&gt;&lt;font style=&quot;font-size: 4px;&quot;&gt;20&lt;/font&gt;&lt;/span&gt;" style="text;html=1;align=center;verticalAlign=middle;whiteSpace=wrap;rounded=0;" vertex="1" parent="1">
          <mxGeometry x="280" y="153" width="9" height="10" as="geometry" />
        </mxCell>
        <mxCell id="dmkywI272U3WjR3wXTrY-98" value="&lt;span style=&quot;&quot;&gt;&lt;font style=&quot;font-size: 4px;&quot;&gt;10&lt;/font&gt;&lt;/span&gt;" style="text;html=1;align=center;verticalAlign=middle;whiteSpace=wrap;rounded=0;" vertex="1" parent="1">
          <mxGeometry x="280" y="163" width="8" height="10" as="geometry" />
        </mxCell>
        <mxCell id="dmkywI272U3WjR3wXTrY-99" value="&lt;span style=&quot;&quot;&gt;&lt;font style=&quot;font-size: 4px;&quot;&gt;40&lt;/font&gt;&lt;/span&gt;" style="text;html=1;align=center;verticalAlign=middle;whiteSpace=wrap;rounded=0;" vertex="1" parent="1">
          <mxGeometry x="280" y="133" width="8" height="10" as="geometry" />
        </mxCell>
        <mxCell id="dmkywI272U3WjR3wXTrY-100" value="&lt;span style=&quot;&quot;&gt;&lt;font style=&quot;font-size: 4px;&quot;&gt;50&lt;/font&gt;&lt;/span&gt;" style="text;html=1;align=center;verticalAlign=middle;whiteSpace=wrap;rounded=0;" vertex="1" parent="1">
          <mxGeometry x="280" y="123" width="8" height="10" as="geometry" />
        </mxCell>
        <mxCell id="dmkywI272U3WjR3wXTrY-101" value="&lt;span style=&quot;&quot;&gt;&lt;font style=&quot;font-size: 4px;&quot;&gt;60&lt;/font&gt;&lt;/span&gt;" style="text;html=1;align=center;verticalAlign=middle;whiteSpace=wrap;rounded=0;" vertex="1" parent="1">
          <mxGeometry x="280" y="113" width="8" height="10" as="geometry" />
        </mxCell>
        <mxCell id="dmkywI272U3WjR3wXTrY-102" value="&lt;span style=&quot;&quot;&gt;&lt;font style=&quot;font-size: 4px;&quot;&gt;30&lt;/font&gt;&lt;/span&gt;" style="text;html=1;align=center;verticalAlign=middle;whiteSpace=wrap;rounded=0;" vertex="1" parent="1">
          <mxGeometry x="280" y="142" width="8" height="10" as="geometry" />
        </mxCell>
        <mxCell id="dmkywI272U3WjR3wXTrY-103" value="&lt;span style=&quot;&quot;&gt;&lt;font style=&quot;font-size: 4px;&quot;&gt;80&lt;/font&gt;&lt;/span&gt;" style="text;html=1;align=center;verticalAlign=middle;whiteSpace=wrap;rounded=0;" vertex="1" parent="1">
          <mxGeometry x="279.5" y="93" width="8" height="10" as="geometry" />
        </mxCell>
        <mxCell id="dmkywI272U3WjR3wXTrY-104" value="&lt;span style=&quot;&quot;&gt;&lt;font style=&quot;font-size: 4px;&quot;&gt;90&lt;/font&gt;&lt;/span&gt;" style="text;html=1;align=center;verticalAlign=middle;whiteSpace=wrap;rounded=0;" vertex="1" parent="1">
          <mxGeometry x="280" y="83" width="8" height="10" as="geometry" />
        </mxCell>
        <mxCell id="dmkywI272U3WjR3wXTrY-105" value="&lt;span style=&quot;&quot;&gt;&lt;font style=&quot;font-size: 4px;&quot;&gt;100&lt;/font&gt;&lt;/span&gt;" style="text;html=1;align=center;verticalAlign=middle;whiteSpace=wrap;rounded=0;" vertex="1" parent="1">
          <mxGeometry x="280" y="73" width="8" height="10" as="geometry" />
        </mxCell>
        <mxCell id="dmkywI272U3WjR3wXTrY-106" value="&lt;span style=&quot;&quot;&gt;&lt;font style=&quot;font-size: 4px;&quot;&gt;70&lt;/font&gt;&lt;/span&gt;" style="text;html=1;align=center;verticalAlign=middle;whiteSpace=wrap;rounded=0;" vertex="1" parent="1">
          <mxGeometry x="280" y="104" width="8" height="10" as="geometry" />
        </mxCell>
        <mxCell id="dmkywI272U3WjR3wXTrY-107" value="&lt;span style=&quot;&quot;&gt;&lt;font style=&quot;font-size: 4px;&quot;&gt;-90&lt;/font&gt;&lt;/span&gt;" style="text;html=1;align=center;verticalAlign=middle;whiteSpace=wrap;rounded=0;" vertex="1" parent="1">
          <mxGeometry x="280" y="262" width="9" height="10" as="geometry" />
        </mxCell>
        <mxCell id="dmkywI272U3WjR3wXTrY-108" value="&lt;span style=&quot;&quot;&gt;&lt;font style=&quot;font-size: 4px;&quot;&gt;-100&lt;/font&gt;&lt;/span&gt;" style="text;html=1;align=center;verticalAlign=middle;whiteSpace=wrap;rounded=0;" vertex="1" parent="1">
          <mxGeometry x="280" y="272" width="8" height="10" as="geometry" />
        </mxCell>
        <mxCell id="dmkywI272U3WjR3wXTrY-109" value="&lt;span style=&quot;&quot;&gt;&lt;font style=&quot;font-size: 4px;&quot;&gt;-70&lt;/font&gt;&lt;/span&gt;" style="text;html=1;align=center;verticalAlign=middle;whiteSpace=wrap;rounded=0;" vertex="1" parent="1">
          <mxGeometry x="280" y="242" width="8" height="10" as="geometry" />
        </mxCell>
        <mxCell id="dmkywI272U3WjR3wXTrY-110" value="&lt;span style=&quot;&quot;&gt;&lt;font style=&quot;font-size: 4px;&quot;&gt;-60&lt;/font&gt;&lt;/span&gt;" style="text;html=1;align=center;verticalAlign=middle;whiteSpace=wrap;rounded=0;" vertex="1" parent="1">
          <mxGeometry x="280" y="232" width="8" height="10" as="geometry" />
        </mxCell>
        <mxCell id="dmkywI272U3WjR3wXTrY-111" value="&lt;span style=&quot;&quot;&gt;&lt;font style=&quot;font-size: 4px;&quot;&gt;-50&lt;/font&gt;&lt;/span&gt;" style="text;html=1;align=center;verticalAlign=middle;whiteSpace=wrap;rounded=0;" vertex="1" parent="1">
          <mxGeometry x="280" y="222" width="8" height="10" as="geometry" />
        </mxCell>
        <mxCell id="dmkywI272U3WjR3wXTrY-112" value="&lt;span style=&quot;&quot;&gt;&lt;font style=&quot;font-size: 4px;&quot;&gt;-80&lt;/font&gt;&lt;/span&gt;" style="text;html=1;align=center;verticalAlign=middle;whiteSpace=wrap;rounded=0;" vertex="1" parent="1">
          <mxGeometry x="280" y="251" width="8" height="10" as="geometry" />
        </mxCell>
        <mxCell id="dmkywI272U3WjR3wXTrY-113" value="&lt;span style=&quot;&quot;&gt;&lt;font style=&quot;font-size: 4px;&quot;&gt;-30&lt;/font&gt;&lt;/span&gt;" style="text;html=1;align=center;verticalAlign=middle;whiteSpace=wrap;rounded=0;" vertex="1" parent="1">
          <mxGeometry x="279.5" y="202" width="8" height="10" as="geometry" />
        </mxCell>
        <mxCell id="dmkywI272U3WjR3wXTrY-114" value="&lt;span style=&quot;&quot;&gt;&lt;font style=&quot;font-size: 4px;&quot;&gt;-20&lt;/font&gt;&lt;/span&gt;" style="text;html=1;align=center;verticalAlign=middle;whiteSpace=wrap;rounded=0;" vertex="1" parent="1">
          <mxGeometry x="280" y="192" width="8" height="10" as="geometry" />
        </mxCell>
        <mxCell id="dmkywI272U3WjR3wXTrY-115" value="&lt;span style=&quot;&quot;&gt;&lt;font style=&quot;font-size: 4px;&quot;&gt;-10&lt;/font&gt;&lt;/span&gt;" style="text;html=1;align=center;verticalAlign=middle;whiteSpace=wrap;rounded=0;" vertex="1" parent="1">
          <mxGeometry x="280" y="182" width="8" height="10" as="geometry" />
        </mxCell>
        <mxCell id="dmkywI272U3WjR3wXTrY-116" value="&lt;span style=&quot;&quot;&gt;&lt;font style=&quot;font-size: 4px;&quot;&gt;-40&lt;/font&gt;&lt;/span&gt;" style="text;html=1;align=center;verticalAlign=middle;whiteSpace=wrap;rounded=0;" vertex="1" parent="1">
          <mxGeometry x="280" y="213" width="8" height="10" as="geometry" />
        </mxCell>
        <mxCell id="dmkywI272U3WjR3wXTrY-120" value="" style="endArrow=none;dashed=1;html=1;rounded=0;" edge="1" parent="1">
          <mxGeometry width="50" height="50" relative="1" as="geometry">
            <mxPoint x="325" y="280.2197802197802" as="sourcePoint" />
            <mxPoint x="325" y="80" as="targetPoint" />
          </mxGeometry>
        </mxCell>
        <mxCell id="dmkywI272U3WjR3wXTrY-121" value="" style="endArrow=none;dashed=1;html=1;rounded=0;" edge="1" parent="1">
          <mxGeometry width="50" height="50" relative="1" as="geometry">
            <mxPoint x="180" y="80" as="sourcePoint" />
            <mxPoint x="380" y="80" as="targetPoint" />
          </mxGeometry>
        </mxCell>
        <mxCell id="dmkywI272U3WjR3wXTrY-122" value="&lt;span style=&quot;&quot;&gt;&lt;font style=&quot;font-size: 4px;&quot;&gt;x1&lt;/font&gt;&lt;/span&gt;" style="text;html=1;align=center;verticalAlign=middle;whiteSpace=wrap;rounded=0;" vertex="1" parent="1">
          <mxGeometry x="384" y="182" width="8" height="10" as="geometry" />
        </mxCell>
        <mxCell id="dmkywI272U3WjR3wXTrY-123" value="&lt;span style=&quot;&quot;&gt;&lt;font style=&quot;font-size: 4px;&quot;&gt;x2&lt;/font&gt;&lt;/span&gt;" style="text;html=1;align=center;verticalAlign=middle;whiteSpace=wrap;rounded=0;" vertex="1" parent="1">
          <mxGeometry x="271.5" y="63" width="8" height="10" as="geometry" />
        </mxCell>
        <mxCell id="dmkywI272U3WjR3wXTrY-124" value="" style="endArrow=none;dashed=1;html=1;rounded=0;exitX=0;exitY=0.75;exitDx=0;exitDy=0;entryX=0.5;entryY=0.3;entryDx=0;entryDy=0;entryPerimeter=0;" edge="1" parent="1" source="dmkywI272U3WjR3wXTrY-105" target="dmkywI272U3WjR3wXTrY-90">
          <mxGeometry width="50" height="50" relative="1" as="geometry">
            <mxPoint x="280" y="180" as="sourcePoint" />
            <mxPoint x="320" y="160" as="targetPoint" />
          </mxGeometry>
        </mxCell>
        <mxCell id="dmkywI272U3WjR3wXTrY-125" value="" style="endArrow=none;dashed=1;html=1;rounded=0;exitX=0.5;exitY=0.3;exitDx=0;exitDy=0;exitPerimeter=0;" edge="1" parent="1" source="dmkywI272U3WjR3wXTrY-93">
          <mxGeometry width="50" height="50" relative="1" as="geometry">
            <mxPoint x="340" y="160" as="sourcePoint" />
            <mxPoint x="270" y="150" as="targetPoint" />
          </mxGeometry>
        </mxCell>
        <mxCell id="dmkywI272U3WjR3wXTrY-140" value="" style="line;strokeWidth=2;direction=south;html=1;fillColor=#6EFF77;strokeColor=#6BFF93;" vertex="1" parent="1">
          <mxGeometry x="284.5" y="156" width="8.5" height="24" as="geometry" />
        </mxCell>
        <mxCell id="dmkywI272U3WjR3wXTrY-141" value="" style="line;strokeWidth=2;direction=south;html=1;fillColor=#6EFF77;strokeColor=#6BFF93;" vertex="1" parent="1">
          <mxGeometry x="293" y="159" width="8.5" height="21" as="geometry" />
        </mxCell>
        <mxCell id="dmkywI272U3WjR3wXTrY-142" value="" style="line;strokeWidth=2;direction=south;html=1;fillColor=#6EFF77;strokeColor=#6BFF93;" vertex="1" parent="1">
          <mxGeometry x="301.5" y="162" width="8.5" height="18" as="geometry" />
        </mxCell>
        <mxCell id="dmkywI272U3WjR3wXTrY-143" value="" style="line;strokeWidth=2;direction=south;html=1;fillColor=#6EFF77;strokeColor=#6BFF93;" vertex="1" parent="1">
          <mxGeometry x="309" y="165" width="8.5" height="15" as="geometry" />
        </mxCell>
        <mxCell id="dmkywI272U3WjR3wXTrY-144" value="" style="line;strokeWidth=2;direction=south;html=1;fillColor=#6EFF77;strokeColor=#6BFF93;" vertex="1" parent="1">
          <mxGeometry x="318" y="168" width="8.5" height="12" as="geometry" />
        </mxCell>
        <mxCell id="dmkywI272U3WjR3wXTrY-145" value="" style="endArrow=none;dashed=1;html=1;rounded=0;strokeColor=#70ECFF;" edge="1" parent="1">
          <mxGeometry width="50" height="50" relative="1" as="geometry">
            <mxPoint x="292.25" y="137" as="sourcePoint" />
            <mxPoint x="352.25" y="197" as="targetPoint" />
          </mxGeometry>
        </mxCell>
        <mxCell id="dmkywI272U3WjR3wXTrY-147" value="&lt;span style=&quot;font-size: 6px;&quot;&gt;x1=0, x2=0, z=0&lt;/span&gt;" style="text;html=1;align=center;verticalAlign=middle;whiteSpace=wrap;rounded=0;strokeColor=#FFC670;fillColor=#FFC670;" vertex="1" parent="1">
          <mxGeometry x="337" y="200" width="60" height="10" as="geometry" />
        </mxCell>
        <mxCell id="dmkywI272U3WjR3wXTrY-149" value="&lt;span style=&quot;font-size: 6px;&quot;&gt;x1=30, x2=25, z=110&lt;/span&gt;" style="text;html=1;align=center;verticalAlign=middle;whiteSpace=wrap;rounded=0;fillColor=#FFC670;strokeColor=#FFC670;" vertex="1" parent="1">
          <mxGeometry x="337" y="220" width="60" height="10" as="geometry" />
        </mxCell>
        <mxCell id="dmkywI272U3WjR3wXTrY-151" value="&lt;span style=&quot;font-size: 6px;&quot;&gt;x1=44, x2=12, z=112&lt;/span&gt;" style="text;html=1;align=center;verticalAlign=middle;whiteSpace=wrap;rounded=0;fillColor=#70ECFF;strokeColor=#70ECFF;" vertex="1" parent="1">
          <mxGeometry x="337" y="230" width="60" height="10" as="geometry" />
        </mxCell>
        <mxCell id="dmkywI272U3WjR3wXTrY-152" value="" style="endArrow=none;dashed=1;html=1;rounded=0;strokeColor=#FFC670;" edge="1" parent="1">
          <mxGeometry width="50" height="50" relative="1" as="geometry">
            <mxPoint x="286" y="146" as="sourcePoint" />
            <mxPoint x="330" y="190" as="targetPoint" />
          </mxGeometry>
        </mxCell>
        <mxCell id="dmkywI272U3WjR3wXTrY-153" value="&lt;span style=&quot;font-size: 6px;&quot;&gt;x1=20, x2=20, z=40&lt;/span&gt;" style="text;html=1;align=center;verticalAlign=middle;whiteSpace=wrap;rounded=0;strokeColor=#FFC670;fillColor=#FFC670;" vertex="1" parent="1">
          <mxGeometry x="337" y="210" width="60" height="10" as="geometry" />
        </mxCell>
        <mxCell id="dmkywI272U3WjR3wXTrY-154" value="" style="endArrow=none;dashed=1;html=1;rounded=0;strokeColor=#FFC670;" edge="1" parent="1">
          <mxGeometry width="50" height="50" relative="1" as="geometry">
            <mxPoint x="296" y="149.5" as="sourcePoint" />
            <mxPoint x="340" y="193.5" as="targetPoint" />
          </mxGeometry>
        </mxCell>
        <mxCell id="dmkywI272U3WjR3wXTrY-155" value="" style="endArrow=none;dashed=1;html=1;rounded=0;strokeColor=#FFC670;fillColor=#FFC670;" edge="1" parent="1">
          <mxGeometry width="50" height="50" relative="1" as="geometry">
            <mxPoint x="260" y="159.5" as="sourcePoint" />
            <mxPoint x="304" y="203.5" as="targetPoint" />
          </mxGeometry>
        </mxCell>
      </root>
    </mxGraphModel>
  </diagram>
</mxfile>
